<svg xmlns="http://www.w3.org/2000/svg" width="21.31" height="20.295" viewBox="0 0 21.31 20.295">
  <path id="Icon_simple-line" data-name="Icon simple-line" d="M17.195,9.108a.56.56,0,0,1,0,1.12H15.636v1h1.558a.559.559,0,1,1,0,1.118H15.076a.56.56,0,0,1-.557-.559V7.549a.561.561,0,0,1,.559-.559H17.2a.559.559,0,0,1,0,1.119H15.636v1h1.558Zm-3.423,2.678a.559.559,0,0,1-.384.529.574.574,0,0,1-.177.028.549.549,0,0,1-.453-.222L10.589,9.175v2.611a.558.558,0,1,1-1.116,0V7.549a.556.556,0,0,1,.382-.528.517.517,0,0,1,.172-.029.574.574,0,0,1,.44.226l2.186,2.957V7.549a.559.559,0,0,1,1.119,0v4.236Zm-5.1,0a.559.559,0,1,1-1.117,0V7.549a.559.559,0,1,1,1.117,0Zm-2.19.559H4.366a.563.563,0,0,1-.559-.559V7.549a.559.559,0,0,1,1.119,0v3.677H6.485a.559.559,0,0,1,0,1.118M21.31,9.508c0-4.769-4.781-8.65-10.655-8.65S0,4.739,0,9.508c0,4.272,3.791,7.851,8.91,8.531.347.073.82.229.939.524a2.169,2.169,0,0,1,.034.959l-.146.906c-.04.267-.213,1.053.931.573a34.349,34.349,0,0,0,8.378-6.193,7.656,7.656,0,0,0,2.262-5.3" transform="translate(0 -0.858)" fill="#fff"/>
</svg>
