<svg xmlns="http://www.w3.org/2000/svg" width="19.76" height="19.76" viewBox="0 0 19.76 19.76">
  <g id="Icon_ionic-logo-instagram" data-name="Icon ionic-logo-instagram" transform="translate(-4.5 -4.5)">
    <path id="パス_1" data-name="パス 1" d="M18.5,6.147a4.129,4.129,0,0,1,4.117,4.117V18.5A4.129,4.129,0,0,1,18.5,22.614H10.263A4.129,4.129,0,0,1,6.147,18.5V10.263a4.129,4.129,0,0,1,4.117-4.117H18.5m0-1.647H10.263A5.78,5.78,0,0,0,4.5,10.263V18.5a5.78,5.78,0,0,0,5.763,5.763H18.5A5.78,5.78,0,0,0,24.26,18.5V10.263A5.78,5.78,0,0,0,18.5,4.5Z" fill="#fff"/>
    <path id="パス_2" data-name="パス 2" d="M24.86,11.47A1.235,1.235,0,1,1,26.1,10.235,1.232,1.232,0,0,1,24.86,11.47Z" transform="translate(-5.128 -1.207)" fill="#fff"/>
    <path id="パス_3" data-name="パス 3" d="M16.19,12.9A3.293,3.293,0,1,1,12.9,16.19,3.3,3.3,0,0,1,16.19,12.9m0-1.647a4.94,4.94,0,1,0,4.94,4.94,4.941,4.941,0,0,0-4.94-4.94Z" transform="translate(-1.81 -1.81)" fill="#fff"/>
  </g>
</svg>
